<svg width="267" height="267" viewBox="0 0 267 267" fill="none" xmlns="http://www.w3.org/2000/svg">
<g clip-path="url(#clip0_778_3003)">
<g filter="url(#filter0_dd_778_3003)">
<path d="M133 56.3095C128.184 56.1379 123.359 55.9748 118.542 55.82C108.937 55.5119 99.3095 55.2354 89.7149 54.997C87.2544 54.8869 84.8669 51.9919 83.42 49.4178L83.0423 48.6977L82.1653 48.6412C76.885 48.3506 71.5174 47.8463 65.9308 48.9272C60.3149 50.033 55.4903 52.9679 50.9983 55.8126C33.6667 69.0746 28.9079 90.2727 24.3129 109.504C23.972 111.171 23.6571 112.8 23.3781 114.508L23.4191 114.305C20.5722 126.597 18.3925 139.091 17.329 151.727C16.8304 158.056 16.5944 164.458 17.229 170.887C18.1068 176.936 18.6879 185.254 26.593 188.342C30.6983 189.576 35.5492 190.208 39.8772 188.426C44.1672 186.687 47.2633 183.463 50.0492 180.329C55.5526 173.915 60.2698 167.092 65.3341 160.468C68.2481 156.614 71.1934 152.806 74.2055 149.034C70.9403 152.589 67.7469 156.2 64.5946 159.872C59.1314 166.168 53.9753 172.777 48.316 178.734C42.8385 185.007 35.2822 188.309 27.634 185.039C22.9879 183.364 21.7666 176.312 21.3123 170.528C20.8933 164.499 21.2631 158.293 21.8765 152.141C23.1585 139.862 25.4659 127.463 28.2701 115.491L28.311 115.287C28.5656 113.752 28.8818 112.115 29.2106 110.511C33.5173 91.8338 38.6432 70.9072 53.2875 59.2791C61.7208 52.6751 71.2955 50.9682 82.0371 51.6521L80.7824 50.8755C82.7842 53.8659 85.1268 57.2704 89.7149 57.5424C99.3054 57.3152 108.937 57.06 118.541 56.77C123.358 56.6248 128.184 56.4713 133 56.3095Z" fill="white"/>
<path d="M133 56.3095C128.184 56.1379 123.359 55.9748 118.542 55.82C108.937 55.5119 99.3095 55.2354 89.7149 54.997C87.2544 54.8869 84.8669 51.9919 83.42 49.4178L83.0423 48.6977L82.1653 48.6412C76.885 48.3506 71.5174 47.8463 65.9308 48.9272C60.3149 50.033 55.4903 52.9679 50.9983 55.8126C33.6667 69.0746 28.9079 90.2727 24.3129 109.504C23.972 111.171 23.6571 112.8 23.3781 114.508L23.4191 114.305C20.5722 126.597 18.3925 139.091 17.329 151.727C16.8304 158.056 16.5944 164.458 17.229 170.887C18.1068 176.936 18.6879 185.254 26.593 188.342C30.6983 189.576 35.5492 190.208 39.8772 188.426C44.1672 186.687 47.2633 183.463 50.0492 180.329C55.5526 173.915 60.2698 167.092 65.3341 160.468C68.2481 156.614 71.1934 152.806 74.2055 149.034C70.9403 152.589 67.7469 156.2 64.5946 159.872C59.1314 166.168 53.9753 172.777 48.316 178.734C42.8385 185.007 35.2822 188.309 27.634 185.039C22.9879 183.364 21.7666 176.312 21.3123 170.528C20.8933 164.499 21.2631 158.293 21.8765 152.141C23.1585 139.862 25.4659 127.463 28.2701 115.491L28.311 115.287C28.5656 113.752 28.8818 112.115 29.2106 110.511C33.5173 91.8338 38.6432 70.9072 53.2875 59.2791C61.7208 52.6751 71.2955 50.9682 82.0371 51.6521L80.7824 50.8755C82.7842 53.8659 85.1268 57.2704 89.7149 57.5424C99.3054 57.3152 108.937 57.06 118.541 56.77C123.358 56.6248 128.184 56.4713 133 56.3095Z" fill="url(#paint0_linear_778_3003)"/>
</g>
<g filter="url(#filter1_ddd_778_3003)">
<path d="M147.523 56.3003C153.695 56.1248 159.909 55.9578 166.1 55.7997C170.501 55.6878 174.909 55.5789 179.291 55.4786C182.155 55.312 184.501 52.3126 186.028 49.6616L186.28 49.1829L186.861 49.146C192.136 48.8589 197.483 48.3666 202.962 49.4228C208.466 50.4972 213.246 53.3817 217.734 56.2088C236.082 70.4612 240.914 93.547 245.462 114.439L245.424 114.248C249.11 129.852 252.041 145.697 252.483 161.974C252.553 166.632 252.401 171.349 251.462 176.092C250.438 180.639 248.85 186.639 242.622 188.825C225.203 191.05 214.558 177.84 205.441 167.462C199.656 160.348 192.842 153.844 184.408 150.954C175.909 147.764 166.805 150.4 157.025 150.618C150.786 150.69 146.591 145.379 144.183 140.879C141.615 136.199 139.728 131.331 137.291 126.758C136.638 125.596 136.986 123.994 138.079 123.246C139.988 121.902 141.897 120.559 143.808 119.217C148.876 115.657 153.949 112.104 159.028 108.557C154.148 112.372 149.262 116.18 144.372 119.981C142.529 121.414 140.686 122.846 138.841 124.277C138.301 124.688 138.176 125.51 138.528 126.065C143.913 134.468 146.983 147.751 157.025 147.914C165.862 147.468 175.844 144.231 185.525 147.513C195.116 150.52 202.564 157.43 208.756 164.723C217.345 174.768 229.412 186.133 241.153 184.159C247.144 181.751 247.545 170.403 247.484 162.061C247.073 146.482 244.285 130.651 240.888 115.359L240.85 115.168C236.87 94.9709 231.983 71.901 215.985 58.8609C207.585 52.222 197.628 50.4308 186.946 51.1467L187.78 50.6312C185.856 53.5396 183.47 56.829 179.291 57.0425C174.912 56.9466 170.502 56.8508 166.101 56.7497C159.91 56.6078 153.696 56.4581 147.523 56.3003Z" fill="white"/>
<path d="M147.523 56.3003C153.695 56.1248 159.909 55.9578 166.1 55.7997C170.501 55.6878 174.909 55.5789 179.291 55.4786C182.155 55.312 184.501 52.3126 186.028 49.6616L186.28 49.1829L186.861 49.146C192.136 48.8589 197.483 48.3666 202.962 49.4228C208.466 50.4972 213.246 53.3817 217.734 56.2088C236.082 70.4612 240.914 93.547 245.462 114.439L245.424 114.248C249.11 129.852 252.041 145.697 252.483 161.974C252.553 166.632 252.401 171.349 251.462 176.092C250.438 180.639 248.85 186.639 242.622 188.825C225.203 191.05 214.558 177.84 205.441 167.462C199.656 160.348 192.842 153.844 184.408 150.954C175.909 147.764 166.805 150.4 157.025 150.618C150.786 150.69 146.591 145.379 144.183 140.879C141.615 136.199 139.728 131.331 137.291 126.758C136.638 125.596 136.986 123.994 138.079 123.246C139.988 121.902 141.897 120.559 143.808 119.217C148.876 115.657 153.949 112.104 159.028 108.557C154.148 112.372 149.262 116.18 144.372 119.981C142.529 121.414 140.686 122.846 138.841 124.277C138.301 124.688 138.176 125.51 138.528 126.065C143.913 134.468 146.983 147.751 157.025 147.914C165.862 147.468 175.844 144.231 185.525 147.513C195.116 150.52 202.564 157.43 208.756 164.723C217.345 174.768 229.412 186.133 241.153 184.159C247.144 181.751 247.545 170.403 247.484 162.061C247.073 146.482 244.285 130.651 240.888 115.359L240.85 115.168C236.87 94.9709 231.983 71.901 215.985 58.8609C207.585 52.222 197.628 50.4308 186.946 51.1467L187.78 50.6312C185.856 53.5396 183.47 56.829 179.291 57.0425C174.912 56.9466 170.502 56.8508 166.101 56.7497C159.91 56.6078 153.696 56.4581 147.523 56.3003Z" fill="url(#paint1_linear_778_3003)"/>
</g>
<g filter="url(#filter2_d_778_3003)">
<path d="M138.458 57.4917C137.78 59.502 137.108 61.5141 136.442 63.5279C130.451 81.652 124.981 99.9164 120.033 118.321C118.866 122.661 117.728 127.009 116.62 131.365L116.626 131.343C114.631 137.789 110.561 145.309 103.781 145.806C96.7428 146.264 89.7015 146.78 82.6587 147.368C80.5432 147.544 78.4308 147.727 76.324 147.916C78.4378 147.994 80.5569 148.064 82.679 148.128C89.7438 148.338 96.8023 148.473 103.86 148.519C113.042 148.236 117.818 139.571 120.302 132.378L120.308 132.356C121.533 128.032 122.729 123.7 123.896 119.36C128.844 100.955 133.271 82.4102 137.176 63.7252C137.61 61.6491 138.037 59.5712 138.458 57.4917Z" fill="#766DFF"/>
</g>
<g filter="url(#filter3_f_778_3003)">
<path d="M138.458 57.4917C137.853 59.5217 137.234 61.548 136.637 63.5802C136.542 63.9007 136.449 64.2214 136.356 64.5423C135.734 66.6855 135.11 68.8279 134.521 70.9799C130.169 86.8884 125.764 102.783 121.482 118.71C120.315 123.051 119.155 127.393 118.003 131.737C115.826 138.458 111.491 146.407 103.81 146.824C96.7651 147.092 89.7174 147.364 82.6663 147.653C80.5483 147.739 78.4335 147.827 76.324 147.916C78.4352 147.894 80.5518 147.869 82.6714 147.843C89.7279 147.754 96.78 147.645 103.83 147.502C112.112 147.138 116.623 138.903 118.924 131.99C120.106 127.648 121.281 123.31 122.447 118.97C126.73 103.043 130.889 87.0821 135.101 71.1357C135.67 68.9786 136.205 66.812 136.742 64.6461C136.822 64.3219 136.902 63.9974 136.981 63.6728C137.483 61.6151 137.964 59.5516 138.458 57.4917Z" fill="white"/>
</g>
<g filter="url(#filter4_d_778_3003)">
<path d="M116.574 151.89C118.1 151.108 119.722 151.289 121.472 150.506C121.739 150.383 122.003 150.235 122.254 150.065C123.947 148.902 124.96 147.143 125.66 145.457C126.187 144.156 126.605 142.834 126.975 141.523C130.128 130.347 133.304 119.137 136.069 107.859C139.633 93.3247 142.623 78.6824 145.167 63.9118C145.446 62.2888 145.733 60.6129 146 59C145.475 60.5528 144.943 62.1725 144.432 63.7424C139.796 78.0384 135.759 92.4497 132.198 106.977C129.434 118.249 127.051 129.631 124.472 140.926C124.184 142.188 123.849 143.447 123.428 144.636C122.868 146.19 122.321 147.745 121.272 148.822C121.113 148.983 120.944 149.135 120.764 149.279C119.635 150.195 117.817 150.735 116.574 151.89Z" fill="#009DDB"/>
</g>
<g filter="url(#filter5_f_778_3003)">
<path d="M116.574 151.89C117.994 150.968 119.689 150.879 121.206 150.046C121.441 149.915 121.669 149.766 121.886 149.599C123.337 148.468 124.176 146.786 124.823 145.149C125.31 143.89 125.697 142.592 126.037 141.299C128.974 130.078 131.853 118.804 134.618 107.528C138.18 92.9966 141.563 78.4409 144.892 63.8483C145.258 62.2452 145.637 60.5903 146 59C145.572 60.5753 145.132 62.2161 144.708 63.8059C140.856 78.2799 137.212 92.7778 133.65 107.308C130.885 118.582 128.205 129.9 125.411 141.15C125.092 142.43 124.726 143.713 124.265 144.944C123.653 146.547 122.931 148.179 121.64 149.288C121.447 149.453 121.242 149.603 121.029 149.739C119.668 150.605 117.923 150.875 116.574 151.89Z" fill="white"/>
</g>
<g filter="url(#filter6_dd_778_3003)">
<g clip-path="url(#clip1_778_3003)">
<path d="M176.965 103.082C181.364 103.082 184.93 99.5154 184.93 95.1164C184.93 90.7175 181.364 87.1514 176.965 87.1514C172.566 87.1514 169 90.7175 169 95.1164C169 99.5154 172.566 103.082 176.965 103.082Z" fill="white"/>
<path d="M210.328 103.082C214.727 103.082 218.293 99.5154 218.293 95.1164C218.293 90.7175 214.727 87.1514 210.328 87.1514C205.929 87.1514 202.362 90.7175 202.362 95.1164C202.362 99.5154 205.929 103.082 210.328 103.082Z" fill="white"/>
<path d="M202.362 78.9651C202.362 83.361 198.799 86.9301 194.397 86.9301C189.996 86.9301 186.432 83.3668 186.432 78.9651C186.432 74.5633 190.001 71 194.403 71C198.805 71 202.368 74.5633 202.368 78.9651H202.362Z" fill="white"/>
<path d="M202.362 111.041C202.362 115.437 198.799 119.006 194.397 119.006C189.996 119.006 186.432 115.442 186.432 111.041C186.432 106.639 189.996 103.076 194.397 103.076C198.799 103.076 202.362 106.639 202.362 111.041Z" fill="white"/>
</g>
</g>
<g filter="url(#filter7_d_778_3003)">
<path d="M66.609 92.4666C73.0892 92.4666 78.3424 87.2134 78.3424 80.7333C78.3424 74.2532 73.0892 69 66.609 69C60.1289 69 54.8757 74.2532 54.8757 80.7333C54.8757 87.2134 60.1289 92.4666 66.609 92.4666Z" fill="white"/>
</g>
<g filter="url(#filter8_d_778_3003)">
<path d="M100.087 108.762H94.546V103.221C94.546 100.342 92.2043 98 89.3351 98H84.839C81.9599 98 79.628 100.342 79.628 103.221V108.762H74.0867C71.2076 108.762 68.8757 111.094 68.8757 113.973V118.459C68.8757 121.338 71.2076 123.67 74.0867 123.67H79.628V129.221C79.628 132.091 81.9599 134.432 84.839 134.432H89.3351C92.2043 134.432 94.546 132.091 94.546 129.221V123.67H100.087C102.957 123.67 105.298 121.338 105.298 118.459V113.973C105.298 111.094 102.957 108.762 100.087 108.762ZM103.144 118.464C103.144 120.15 101.773 121.521 100.087 121.521H92.3917V129.226C92.3917 130.912 91.0211 132.273 89.3351 132.273H84.839C83.1529 132.273 81.7824 130.912 81.7824 129.226V121.521H74.0867C72.4007 121.521 71.0301 120.15 71.0301 118.464V113.978C71.0301 112.292 72.4007 110.921 74.0867 110.921H81.7824V103.226C81.7824 101.54 83.1529 100.169 84.839 100.169H89.3351C91.0211 100.169 92.3917 101.54 92.3917 103.226V110.921H100.087C101.773 110.921 103.144 112.292 103.144 113.978V118.464Z" fill="white"/>
</g>
<g filter="url(#filter9_dd_778_3003)">
<mask id="path-13-outside-1_778_3003" maskUnits="userSpaceOnUse" x="56" y="163" width="145" height="24" fill="black">
<rect fill="white" x="56" y="163" width="145" height="24"/>
<path d="M71.2383 164.349H82.528L80.734 182.505L76.5274 186H58L58.5568 180.216H69.6299L71.2383 164.349ZM84.6922 164.349H96.2293L95.3942 172.762H98.0542L98.8893 164.349H110.179L109.282 173.504L104.055 175.545L108.911 177.216L108.014 186H96.7242L97.5593 177.587H94.9302L94.0641 186H82.527L84.6922 164.349ZM117.898 186L120.063 164.349H144.838L143.911 173.721H132.59L132.961 170.133H130.301L129.311 180.216H131.94L132.342 176.381H143.632L143.044 182.505L138.838 186H117.898ZM144.841 186L147.006 164.349H158.451L156.873 180.216H159.502L161.111 164.349H172.555L170.73 182.505L166.524 186H144.841ZM172.57 186L174.735 164.349H199.511L198.057 178.917L193.85 182.381H183.767L183.396 186H172.57ZM184.973 170.133L184.231 177.587H186.891L187.633 170.133H184.973Z"/>
</mask>
<path d="M71.2383 164.349H82.528L80.734 182.505L76.5274 186H58L58.5568 180.216H69.6299L71.2383 164.349ZM84.6922 164.349H96.2293L95.3942 172.762H98.0542L98.8893 164.349H110.179L109.282 173.504L104.055 175.545L108.911 177.216L108.014 186H96.7242L97.5593 177.587H94.9302L94.0641 186H82.527L84.6922 164.349ZM117.898 186L120.063 164.349H144.838L143.911 173.721H132.59L132.961 170.133H130.301L129.311 180.216H131.94L132.342 176.381H143.632L143.044 182.505L138.838 186H117.898ZM144.841 186L147.006 164.349H158.451L156.873 180.216H159.502L161.111 164.349H172.555L170.73 182.505L166.524 186H144.841ZM172.57 186L174.735 164.349H199.511L198.057 178.917L193.85 182.381H183.767L183.396 186H172.57ZM184.973 170.133L184.231 177.587H186.891L187.633 170.133H184.973Z" fill="url(#paint2_linear_778_3003)"/>
<path d="M71.2383 164.349V163.389H70.3712L70.2837 164.252L71.2383 164.349ZM82.528 164.349L83.4828 164.443L83.5869 163.389H82.528V164.349ZM80.734 182.505L81.3472 183.243L81.6501 182.991L81.6888 182.599L80.734 182.505ZM76.5274 186V186.959H76.874L77.1406 186.738L76.5274 186ZM58 186L57.045 185.908L56.9438 186.959H58V186ZM58.5568 180.216V179.257H57.6852L57.6017 180.124L58.5568 180.216ZM69.6299 180.216V181.175H70.497L70.5845 180.313L69.6299 180.216ZM71.2383 164.349V165.308H82.528V164.349V163.389H71.2383V164.349ZM82.528 164.349L81.5732 164.254L79.7792 182.41L80.734 182.505L81.6888 182.599L83.4828 164.443L82.528 164.349ZM80.734 182.505L80.1208 181.767L75.9143 185.262L76.5274 186L77.1406 186.738L81.3472 183.243L80.734 182.505ZM76.5274 186V185.041H58V186V186.959H76.5274V186ZM58 186L58.955 186.092L59.5118 180.308L58.5568 180.216L57.6017 180.124L57.045 185.908L58 186ZM58.5568 180.216V181.175H69.6299V180.216V179.257H58.5568V180.216ZM69.6299 180.216L70.5845 180.313L72.1929 164.445L71.2383 164.349L70.2837 164.252L68.6753 180.119L69.6299 180.216ZM84.6922 164.349V163.389H83.8239L83.7375 164.253L84.6922 164.349ZM96.2293 164.349L97.1841 164.443L97.2887 163.389H96.2293V164.349ZM95.3942 172.762L94.4394 172.667L94.3347 173.721H95.3942V172.762ZM98.0542 172.762V173.721H98.9231L99.009 172.856L98.0542 172.762ZM98.8893 164.349V163.389H98.0204L97.9346 164.254L98.8893 164.349ZM110.179 164.349L111.134 164.442L111.237 163.389H110.179V164.349ZM109.282 173.504L109.631 174.398L110.179 174.184L110.237 173.598L109.282 173.504ZM104.055 175.545L103.706 174.652L101.271 175.603L103.743 176.453L104.055 175.545ZM108.911 177.216L109.865 177.313L109.943 176.556L109.223 176.308L108.911 177.216ZM108.014 186V186.959H108.88L108.968 186.097L108.014 186ZM96.7242 186L95.7694 185.905L95.6648 186.959H96.7242V186ZM97.5593 177.587L98.5141 177.682L98.6187 176.627H97.5593V177.587ZM94.9302 177.587V176.627H94.0644L93.9758 177.489L94.9302 177.587ZM94.0641 186V186.959H94.9299L95.0186 186.098L94.0641 186ZM82.527 186L81.5723 185.905L81.4668 186.959H82.527V186ZM84.6922 164.349V165.308H96.2293V164.349V163.389H84.6922V164.349ZM96.2293 164.349L95.2745 164.254L94.4394 172.667L95.3942 172.762L96.3489 172.856L97.1841 164.443L96.2293 164.349ZM95.3942 172.762V173.721H98.0542V172.762V171.802H95.3942V172.762ZM98.0542 172.762L99.009 172.856L99.8441 164.443L98.8893 164.349L97.9346 164.254L97.0994 172.667L98.0542 172.762ZM98.8893 164.349V165.308H110.179V164.349V163.389H98.8893V164.349ZM110.179 164.349L109.224 164.255L108.327 173.41L109.282 173.504L110.237 173.598L111.134 164.442L110.179 164.349ZM109.282 173.504L108.933 172.61L103.706 174.652L104.055 175.545L104.404 176.439L109.631 174.398L109.282 173.504ZM104.055 175.545L103.743 176.453L108.599 178.123L108.911 177.216L109.223 176.308L104.367 174.638L104.055 175.545ZM108.911 177.216L107.956 177.118L107.059 185.903L108.014 186L108.968 186.097L109.865 177.313L108.911 177.216ZM108.014 186V185.041H96.7242V186V186.959H108.014V186ZM96.7242 186L97.6789 186.095L98.5141 177.682L97.5593 177.587L96.6045 177.492L95.7694 185.905L96.7242 186ZM97.5593 177.587V176.627H94.9302V177.587V178.546H97.5593V177.587ZM94.9302 177.587L93.9758 177.489L93.1097 185.902L94.0641 186L95.0186 186.098L95.8846 177.685L94.9302 177.587ZM94.0641 186V185.041H82.527V186V186.959H94.0641V186ZM82.527 186L83.4817 186.095L85.6469 164.444L84.6922 164.349L83.7375 164.253L81.5723 185.905L82.527 186ZM117.898 186L116.943 185.905L116.838 186.959H117.898V186ZM120.063 164.349V163.389H119.195L119.108 164.253L120.063 164.349ZM144.838 164.349L145.793 164.443L145.898 163.389H144.838V164.349ZM143.911 173.721V174.68H144.78L144.865 173.815L143.911 173.721ZM132.59 173.721L131.636 173.622L131.526 174.68H132.59V173.721ZM132.961 170.133L133.915 170.231L134.025 169.173H132.961V170.133ZM130.301 170.133V169.173H129.431L129.346 170.039L130.301 170.133ZM129.311 180.216L128.356 180.122L128.253 181.175H129.311V180.216ZM131.94 180.216V181.175H132.805L132.895 180.316L131.94 180.216ZM132.342 176.381V175.421H131.478L131.388 176.281L132.342 176.381ZM143.632 176.381L144.587 176.472L144.688 175.421H143.632V176.381ZM143.044 182.505L143.658 183.243L143.962 182.99L144 182.596L143.044 182.505ZM138.838 186V186.959H139.185L139.451 186.738L138.838 186ZM117.898 186L118.853 186.095L121.018 164.444L120.063 164.349L119.108 164.253L116.943 185.905L117.898 186ZM120.063 164.349V165.308H144.838V164.349V163.389H120.063V164.349ZM144.838 164.349L143.884 164.254L142.956 173.626L143.911 173.721L144.865 173.815L145.793 164.443L144.838 164.349ZM143.911 173.721V172.761H132.59V173.721V174.68H143.911V173.721ZM132.59 173.721L133.544 173.819L133.915 170.231L132.961 170.133L132.007 170.034L131.636 173.622L132.59 173.721ZM132.961 170.133V169.173H130.301V170.133V171.092H132.961V170.133ZM130.301 170.133L129.346 170.039L128.356 180.122L129.311 180.216L130.266 180.31L131.256 170.226L130.301 170.133ZM129.311 180.216V181.175H131.94V180.216V179.257H129.311V180.216ZM131.94 180.216L132.895 180.316L133.297 176.481L132.342 176.381L131.388 176.281L130.986 180.116L131.94 180.216ZM132.342 176.381V177.34H143.632V176.381V175.421H132.342V176.381ZM143.632 176.381L142.677 176.289L142.089 182.413L143.044 182.505L144 182.596L144.587 176.472L143.632 176.381ZM143.044 182.505L142.431 181.767L138.225 185.262L138.838 186L139.451 186.738L143.658 183.243L143.044 182.505ZM138.838 186V185.041H117.898V186V186.959H138.838V186ZM144.841 186L143.887 185.905L143.781 186.959H144.841V186ZM147.007 164.349V163.389H146.138L146.052 164.253L147.007 164.349ZM158.451 164.349L159.406 164.443L159.51 163.389H158.451V164.349ZM156.873 180.216L155.919 180.121L155.814 181.175H156.873V180.216ZM159.502 180.216V181.175H160.37L160.457 180.313L159.502 180.216ZM161.111 164.349V163.389H160.244L160.156 164.252L161.111 164.349ZM172.555 164.349L173.51 164.445L173.616 163.389H172.555V164.349ZM170.73 182.505L171.343 183.243L171.646 182.992L171.685 182.601L170.73 182.505ZM166.524 186V186.959H166.87L167.137 186.738L166.524 186ZM144.841 186L145.796 186.095L147.961 164.444L147.007 164.349L146.052 164.253L143.887 185.905L144.841 186ZM147.007 164.349V165.308H158.451V164.349V163.389H147.007V164.349ZM158.451 164.349L157.496 164.254L155.919 180.121L156.873 180.216L157.828 180.311L159.406 164.443L158.451 164.349ZM156.873 180.216V181.175H159.502V180.216V179.257H156.873V180.216ZM159.502 180.216L160.457 180.313L162.065 164.445L161.111 164.349L160.156 164.252L158.548 180.119L159.502 180.216ZM161.111 164.349V165.308H172.555V164.349V163.389H161.111V164.349ZM172.555 164.349L171.601 164.253L169.776 182.409L170.73 182.505L171.685 182.601L173.51 164.445L172.555 164.349ZM170.73 182.505L170.117 181.767L165.911 185.262L166.524 186L167.137 186.738L171.343 183.243L170.73 182.505ZM166.524 186V185.041H144.841V186V186.959H166.524V186ZM172.57 186L171.615 185.905L171.51 186.959H172.57V186ZM174.735 164.349V163.389H173.867L173.781 164.253L174.735 164.349ZM199.511 164.349L200.465 164.444L200.571 163.389H199.511V164.349ZM198.057 178.917L198.667 179.658L198.972 179.406L199.012 179.012L198.057 178.917ZM193.85 182.381V183.341H194.195L194.46 183.122L193.85 182.381ZM183.767 182.381V181.422H182.901L182.813 182.283L183.767 182.381ZM183.396 186V186.959H184.262L184.35 186.098L183.396 186ZM184.973 170.133V169.173H184.105L184.019 170.038L184.973 170.133ZM184.231 177.587L183.276 177.492L183.171 178.546H184.231V177.587ZM186.891 177.587V178.546H187.76L187.846 177.682L186.891 177.587ZM187.633 170.133L188.588 170.228L188.693 169.173H187.633V170.133ZM172.57 186L173.525 186.095L175.69 164.444L174.735 164.349L173.781 164.253L171.615 185.905L172.57 186ZM174.735 164.349V165.308H199.511V164.349V163.389H174.735V164.349ZM199.511 164.349L198.556 164.253L197.102 178.822L198.057 178.917L199.012 179.012L200.465 164.444L199.511 164.349ZM198.057 178.917L197.447 178.176L193.241 181.64L193.85 182.381L194.46 183.122L198.667 179.658L198.057 178.917ZM193.85 182.381V181.422H183.767V182.381V183.341H193.85V182.381ZM183.767 182.381L182.813 182.283L182.441 185.902L183.396 186L184.35 186.098L184.722 182.479L183.767 182.381ZM183.396 186V185.041H172.57V186V186.959H183.396V186ZM184.973 170.133L184.019 170.038L183.276 177.492L184.231 177.587L185.186 177.682L185.928 170.228L184.973 170.133ZM184.231 177.587V178.546H186.891V177.587V176.627H184.231V177.587ZM186.891 177.587L187.846 177.682L188.588 170.228L187.633 170.133L186.679 170.038L185.936 177.492L186.891 177.587ZM187.633 170.133V169.173H184.973V170.133V171.092H187.633V170.133Z" fill="url(#paint3_linear_778_3003)" mask="url(#path-13-outside-1_778_3003)"/>
</g>
<g filter="url(#filter10_d_778_3003)">
<path d="M52.5915 196.455C52.6975 194.928 53.9754 194.165 56.4253 194.165C58.6496 194.165 59.9456 194.768 60.3133 195.975H58.283C58.2198 195.706 57.9965 195.518 57.613 195.41C57.2318 195.299 56.8359 195.244 56.4253 195.244C56.0328 195.244 55.656 195.327 55.2951 195.494C54.9342 195.661 54.7357 195.977 54.6996 196.442C54.7018 196.859 54.8913 197.157 55.268 197.335C55.647 197.513 56.0328 197.602 56.4253 197.602C56.8359 197.602 57.2318 197.533 57.613 197.393C57.9965 197.251 58.2435 197.023 58.3541 196.709H60.3031C59.9692 197.961 58.6766 198.587 56.4253 198.587C53.9754 198.587 52.6975 197.877 52.5915 196.455ZM64.7359 194.141C65.3968 194.141 66.0386 194.238 66.6613 194.432C67.2839 194.626 67.7723 194.902 68.1264 195.261C68.4806 195.62 68.6577 195.995 68.6577 196.388C68.6577 196.778 68.4851 197.151 68.14 197.508C67.7971 197.862 67.3132 198.138 66.6883 198.337C66.0657 198.535 65.4149 198.635 64.7359 198.635C64.0614 198.635 63.4128 198.535 62.7902 198.337C62.1676 198.138 61.6837 197.862 61.3386 197.508C60.9934 197.151 60.8208 196.778 60.8208 196.388C60.8208 195.995 60.9957 195.62 61.3453 195.261C61.6972 194.902 62.1856 194.626 62.8105 194.432C63.4354 194.238 64.0772 194.141 64.7359 194.141ZM64.7866 195.244C64.4753 195.244 64.1742 195.296 63.8832 195.4C63.5922 195.501 63.3643 195.644 63.1996 195.829C63.035 196.014 62.9526 196.21 62.9526 196.415C62.9526 196.618 63.0327 196.812 63.1929 196.997C63.3553 197.18 63.5831 197.323 63.8764 197.427C64.1697 197.53 64.4731 197.582 64.7866 197.582C65.1002 197.582 65.4036 197.53 65.6969 197.427C65.9901 197.323 66.2169 197.18 66.377 196.997C66.5372 196.812 66.6173 196.618 66.6173 196.415C66.6173 196.21 66.5338 196.014 66.3669 195.829C66.2022 195.644 65.9743 195.501 65.6833 195.4C65.3923 195.296 65.0934 195.244 64.7866 195.244ZM69.1653 194.229H71.7471L73.2867 196.479L74.8331 194.229H77.3676V198.536H75.7569V195.816L74.0142 198.536H72.5287L70.7962 195.816V198.536H69.1653V194.229ZM82.3722 195.176H79.9054V195.65V196.127H82.3214C82.6914 196.123 82.9226 196.043 83.0151 195.887C83.1099 195.729 83.1099 195.572 83.0151 195.417C82.9226 195.261 82.7083 195.181 82.3722 195.176ZM77.8751 194.229H82.6395C82.9328 194.265 83.173 194.297 83.3603 194.324C83.5497 194.348 83.7528 194.41 83.9693 194.51C84.1859 194.609 84.3664 194.731 84.5107 194.875C84.6574 195.02 84.7397 195.191 84.7578 195.389C84.7758 195.588 84.7713 195.807 84.7442 196.046C84.7172 196.285 84.6213 196.485 84.4566 196.645C84.2942 196.803 84.1081 196.923 83.8983 197.007C83.6907 197.088 83.3986 197.141 83.0219 197.166H79.9054V198.536H77.8751V194.229ZM85.2924 194.229H91.1193V195.244H87.1535V195.884V195.887H90.676V196.794L87.1535 196.787V197.46L91.1193 197.457V198.536H85.2924V194.229ZM91.6268 194.229H98.4147V195.511H96.0089V198.536H93.9684V195.511H91.6268V194.229ZM98.9223 194.229H100.932V198.536H98.9223V194.229ZM101.44 194.229H108.228V195.511H105.822V198.536H103.781V195.511H101.44V194.229ZM108.735 194.229H110.745V198.536H108.735V194.229ZM116.207 198.536H113.605L111.253 194.229H113.114L114.907 197.345L116.691 194.229H118.552L116.207 198.536ZM119.063 194.229H124.889V195.244H120.924V195.884V195.887H124.446V196.794L120.924 196.787V197.46L124.889 197.457V198.536H119.063V194.229ZM136.283 198.57L135.948 197.965C135.803 198.066 135.626 198.159 135.416 198.242C135.209 198.323 134.988 198.394 134.753 198.455C134.521 198.514 134.283 198.56 134.039 198.594C133.796 198.628 133.568 198.645 133.356 198.645C132.812 198.645 132.31 198.607 131.85 198.533C131.392 198.456 130.99 198.34 130.645 198.185C130.302 198.029 130.028 197.834 129.823 197.599C129.618 197.365 129.5 197.089 129.471 196.773C129.471 196.746 129.47 196.716 129.468 196.682C129.466 196.648 129.464 196.616 129.464 196.584C129.46 196.552 129.458 196.522 129.458 196.493C129.458 196.461 129.458 196.428 129.458 196.394C129.458 196.358 129.459 196.32 129.461 196.279C129.463 196.239 129.464 196.199 129.464 196.161V196.046C129.485 195.771 129.59 195.518 129.779 195.288C129.971 195.056 130.239 194.856 130.584 194.689C130.93 194.52 131.349 194.388 131.843 194.293C132.339 194.198 132.905 194.151 133.538 194.151C134.003 194.151 134.439 194.179 134.845 194.236C135.253 194.292 135.616 194.383 135.934 194.51C136.252 194.634 136.517 194.795 136.729 194.994C136.941 195.19 137.084 195.43 137.156 195.714V195.708C137.162 195.719 137.167 195.737 137.169 195.762C137.172 195.787 137.175 195.809 137.179 195.829H134.797C134.786 195.802 134.778 195.779 134.774 195.758C134.769 195.738 134.762 195.72 134.753 195.704V195.714C134.679 195.536 134.537 195.397 134.327 195.298C134.117 195.199 133.837 195.149 133.488 195.149C133.041 195.149 132.649 195.224 132.31 195.373C131.974 195.519 131.777 195.71 131.718 195.944C131.659 196.179 131.63 196.325 131.63 196.381C131.63 196.442 131.631 196.52 131.633 196.614C131.636 196.709 131.663 196.799 131.715 196.885C131.769 196.969 131.84 197.055 131.928 197.146C132.018 197.234 132.159 197.324 132.351 197.416C132.542 197.509 132.725 197.559 132.899 197.565C133.073 197.572 133.27 197.575 133.491 197.575C134.26 197.596 134.736 197.39 134.919 196.96H134.472V196.618H137.281C137.285 196.722 137.288 196.837 137.288 196.963C137.288 197.089 137.288 197.195 137.288 197.281C137.292 197.389 137.296 197.503 137.298 197.623C137.302 197.742 137.306 197.86 137.308 197.975C137.31 198.09 137.311 198.199 137.311 198.303C137.311 198.407 137.311 198.496 137.311 198.57H136.283ZM140.607 196.905H142.363L141.473 195.346L140.607 196.905ZM140.161 194.229H142.753L145.104 198.536H143.243L142.817 197.765H140.13L139.704 198.536H137.822L140.161 194.229ZM145.612 194.229H148.194L149.733 196.479L151.28 194.229H153.814V198.536H152.203V195.816L150.461 198.536H148.975L147.243 195.816V198.536H145.612V194.229ZM154.322 194.229H156.332V198.536H154.322V194.229ZM156.839 194.229H159.181L162.192 196.831V194.229H163.82V198.536H161.397L158.491 195.85V198.536H156.839V194.229ZM171.156 198.57L170.821 197.965C170.677 198.066 170.5 198.159 170.29 198.242C170.082 198.323 169.861 198.394 169.627 198.455C169.394 198.514 169.156 198.56 168.913 198.594C168.669 198.628 168.441 198.645 168.229 198.645C167.685 198.645 167.183 198.607 166.723 198.533C166.265 198.456 165.864 198.34 165.519 198.185C165.176 198.029 164.902 197.834 164.696 197.599C164.491 197.365 164.374 197.089 164.344 196.773C164.344 196.746 164.343 196.716 164.341 196.682C164.339 196.648 164.338 196.616 164.338 196.584C164.333 196.552 164.331 196.522 164.331 196.493C164.331 196.461 164.331 196.428 164.331 196.394C164.331 196.358 164.332 196.32 164.334 196.279C164.337 196.239 164.338 196.199 164.338 196.161V196.046C164.358 195.771 164.463 195.518 164.652 195.288C164.844 195.056 165.113 194.856 165.458 194.689C165.803 194.52 166.222 194.388 166.717 194.293C167.213 194.198 167.778 194.151 168.412 194.151C168.876 194.151 169.312 194.179 169.718 194.236C170.126 194.292 170.489 194.383 170.808 194.51C171.126 194.634 171.391 194.795 171.603 194.994C171.815 195.19 171.957 195.43 172.029 195.714V195.708C172.036 195.719 172.04 195.737 172.043 195.762C172.045 195.787 172.048 195.809 172.053 195.829H169.671C169.659 195.802 169.651 195.779 169.647 195.758C169.642 195.738 169.636 195.72 169.627 195.704V195.714C169.552 195.536 169.41 195.397 169.2 195.298C168.99 195.199 168.711 195.149 168.361 195.149C167.914 195.149 167.522 195.224 167.183 195.373C166.847 195.519 166.65 195.71 166.591 195.944C166.533 196.179 166.503 196.325 166.503 196.381C166.503 196.442 166.504 196.52 166.507 196.614C166.509 196.709 166.536 196.799 166.588 196.885C166.642 196.969 166.713 197.055 166.801 197.146C166.891 197.234 167.032 197.324 167.224 197.416C167.416 197.509 167.599 197.559 167.772 197.565C167.946 197.572 168.143 197.575 168.364 197.575C169.134 197.596 169.61 197.39 169.792 196.96H169.346V196.618H172.154C172.159 196.722 172.161 196.837 172.161 196.963C172.161 197.089 172.161 197.195 172.161 197.281C172.166 197.389 172.169 197.503 172.171 197.623C172.176 197.742 172.179 197.86 172.181 197.975C172.184 198.09 172.185 198.199 172.185 198.303C172.185 198.407 172.185 198.496 172.185 198.57H171.156ZM181.253 195.176H178.786V195.65V196.127H181.203C181.572 196.123 181.804 196.043 181.896 195.887C181.991 195.729 181.991 195.572 181.896 195.417C181.804 195.261 181.589 195.181 181.253 195.176ZM176.756 194.229H181.521C181.814 194.265 182.054 194.297 182.241 194.324C182.431 194.348 182.634 194.41 182.85 194.51C183.067 194.609 183.247 194.731 183.392 194.875C183.538 195.02 183.621 195.191 183.639 195.389C183.657 195.588 183.652 195.807 183.625 196.046C183.598 196.285 183.502 196.485 183.338 196.645C183.175 196.803 182.989 196.923 182.779 197.007C182.572 197.088 182.28 197.141 181.903 197.166H178.786V198.536H176.756V194.229ZM184.173 194.229H190V195.244H186.035V195.884V195.887H189.557V196.794L186.035 196.787V197.46L190 197.457V198.536H184.173V194.229ZM193.293 196.905H195.049L194.159 195.346L193.293 196.905ZM192.846 194.229H195.438L197.79 198.536H195.929L195.502 197.765H192.816L192.389 198.536H190.508L192.846 194.229ZM202.192 194.229H204.28L201.999 196.374L204.409 198.536H202.192L200.263 196.848V198.536H198.297V194.229H200.263V195.728L202.192 194.229Z" fill="#A9F9FF"/>
</g>
<g filter="url(#filter11_f_778_3003)">
<path d="M47 197C47.1167 197.033 47.2333 197.065 47.35 197.095C48.4 197.365 49.45 197.5 50.5 197.5C51.55 197.5 52.6 197.365 53.65 197.095C53.7667 197.065 53.8833 197.033 54 197C53.8833 196.967 53.7667 196.935 53.65 196.905C52.6 196.635 51.55 196.5 50.5 196.5C49.45 196.5 48.4 196.635 47.35 196.905C47.2333 196.935 47.1167 196.967 47 197Z" fill="#00CCDB"/>
</g>
<g filter="url(#filter12_f_778_3003)">
<path d="M202 197C202.117 197.033 202.233 197.065 202.35 197.095C203.4 197.365 204.45 197.5 205.5 197.5C206.55 197.5 207.6 197.365 208.65 197.095C208.767 197.065 208.883 197.033 209 197C208.883 196.967 208.767 196.935 208.65 196.905C207.6 196.635 206.55 196.5 205.5 196.5C204.45 196.5 203.4 196.635 202.35 196.905C202.233 196.935 202.117 196.967 202 197Z" fill="#00CCDB"/>
</g>
</g>
<defs>
<filter id="filter0_dd_778_3003" x="7.94493" y="39.3667" width="133.955" height="159.064" filterUnits="userSpaceOnUse" color-interpolation-filters="sRGB">
<feFlood flood-opacity="0" result="BackgroundImageFix"/>
<feColorMatrix in="SourceAlpha" type="matrix" values="0 0 0 0 0 0 0 0 0 0 0 0 0 0 0 0 0 0 127 0" result="hardAlpha"/>
<feOffset/>
<feGaussianBlur stdDeviation="4.45"/>
<feColorMatrix type="matrix" values="0 0 0 0 0 0 0 0 0 0.8 0 0 0 0 0.858824 0 0 0 1 0"/>
<feBlend mode="normal" in2="BackgroundImageFix" result="effect1_dropShadow_778_3003"/>
<feColorMatrix in="SourceAlpha" type="matrix" values="0 0 0 0 0 0 0 0 0 0 0 0 0 0 0 0 0 0 127 0" result="hardAlpha"/>
<feOffset/>
<feGaussianBlur stdDeviation="4.45"/>
<feColorMatrix type="matrix" values="0 0 0 0 0.464395 0 0 0 0 0.426138 0 0 0 0 1 0 0 0 1 0"/>
<feBlend mode="normal" in2="effect1_dropShadow_778_3003" result="effect2_dropShadow_778_3003"/>
<feBlend mode="normal" in="SourceGraphic" in2="effect2_dropShadow_778_3003" result="shape"/>
</filter>
<filter id="filter1_ddd_778_3003" x="128.062" y="39.8775" width="133.336" height="158.096" filterUnits="userSpaceOnUse" color-interpolation-filters="sRGB">
<feFlood flood-opacity="0" result="BackgroundImageFix"/>
<feColorMatrix in="SourceAlpha" type="matrix" values="0 0 0 0 0 0 0 0 0 0 0 0 0 0 0 0 0 0 127 0" result="hardAlpha"/>
<feOffset/>
<feGaussianBlur stdDeviation="4.45"/>
<feColorMatrix type="matrix" values="0 0 0 0 0 0 0 0 0 0.8 0 0 0 0 0.858824 0 0 0 1 0"/>
<feBlend mode="normal" in2="BackgroundImageFix" result="effect1_dropShadow_778_3003"/>
<feColorMatrix in="SourceAlpha" type="matrix" values="0 0 0 0 0 0 0 0 0 0 0 0 0 0 0 0 0 0 127 0" result="hardAlpha"/>
<feOffset/>
<feGaussianBlur stdDeviation="4.45"/>
<feColorMatrix type="matrix" values="0 0 0 0 0 0 0 0 0 0.8 0 0 0 0 0.858824 0 0 0 0.4 0"/>
<feBlend mode="normal" in2="effect1_dropShadow_778_3003" result="effect2_dropShadow_778_3003"/>
<feColorMatrix in="SourceAlpha" type="matrix" values="0 0 0 0 0 0 0 0 0 0 0 0 0 0 0 0 0 0 127 0" result="hardAlpha"/>
<feOffset/>
<feGaussianBlur stdDeviation="4.45"/>
<feColorMatrix type="matrix" values="0 0 0 0 0 0 0 0 0 0.8 0 0 0 0 0.858824 0 0 0 0.4 0"/>
<feBlend mode="normal" in2="effect2_dropShadow_778_3003" result="effect3_dropShadow_778_3003"/>
<feBlend mode="normal" in="SourceGraphic" in2="effect3_dropShadow_778_3003" result="shape"/>
</filter>
<filter id="filter2_d_778_3003" x="67.424" y="48.5917" width="79.9343" height="108.828" filterUnits="userSpaceOnUse" color-interpolation-filters="sRGB">
<feFlood flood-opacity="0" result="BackgroundImageFix"/>
<feColorMatrix in="SourceAlpha" type="matrix" values="0 0 0 0 0 0 0 0 0 0 0 0 0 0 0 0 0 0 127 0" result="hardAlpha"/>
<feOffset/>
<feGaussianBlur stdDeviation="4.45"/>
<feColorMatrix type="matrix" values="0 0 0 0 0.464395 0 0 0 0 0.426138 0 0 0 0 1 0 0 0 0.47 0"/>
<feBlend mode="normal" in2="BackgroundImageFix" result="effect1_dropShadow_778_3003"/>
<feBlend mode="normal" in="SourceGraphic" in2="effect1_dropShadow_778_3003" result="shape"/>
</filter>
<filter id="filter3_f_778_3003" x="75.324" y="56.4917" width="64.1343" height="92.424" filterUnits="userSpaceOnUse" color-interpolation-filters="sRGB">
<feFlood flood-opacity="0" result="BackgroundImageFix"/>
<feBlend mode="normal" in="SourceGraphic" in2="BackgroundImageFix" result="shape"/>
<feGaussianBlur stdDeviation="0.5" result="effect1_foregroundBlur_778_3003"/>
</filter>
<filter id="filter4_d_778_3003" x="107.674" y="50.1" width="47.2257" height="110.69" filterUnits="userSpaceOnUse" color-interpolation-filters="sRGB">
<feFlood flood-opacity="0" result="BackgroundImageFix"/>
<feColorMatrix in="SourceAlpha" type="matrix" values="0 0 0 0 0 0 0 0 0 0 0 0 0 0 0 0 0 0 127 0" result="hardAlpha"/>
<feOffset/>
<feGaussianBlur stdDeviation="4.45"/>
<feColorMatrix type="matrix" values="0 0 0 0 0 0 0 0 0 0.8 0 0 0 0 0.858824 0 0 0 0.4 0"/>
<feBlend mode="normal" in2="BackgroundImageFix" result="effect1_dropShadow_778_3003"/>
<feBlend mode="normal" in="SourceGraphic" in2="effect1_dropShadow_778_3003" result="shape"/>
</filter>
<filter id="filter5_f_778_3003" x="115.574" y="58" width="31.4257" height="94.8896" filterUnits="userSpaceOnUse" color-interpolation-filters="sRGB">
<feFlood flood-opacity="0" result="BackgroundImageFix"/>
<feBlend mode="normal" in="SourceGraphic" in2="BackgroundImageFix" result="shape"/>
<feGaussianBlur stdDeviation="0.5" result="effect1_foregroundBlur_778_3003"/>
</filter>
<filter id="filter6_dd_778_3003" x="158.301" y="60.3012" width="70.6844" height="69.3977" filterUnits="userSpaceOnUse" color-interpolation-filters="sRGB">
<feFlood flood-opacity="0" result="BackgroundImageFix"/>
<feColorMatrix in="SourceAlpha" type="matrix" values="0 0 0 0 0 0 0 0 0 0 0 0 0 0 0 0 0 0 127 0" result="hardAlpha"/>
<feOffset/>
<feGaussianBlur stdDeviation="5.34942"/>
<feColorMatrix type="matrix" values="0 0 0 0 0 0 0 0 0 0.8 0 0 0 0 0.858824 0 0 0 1 0"/>
<feBlend mode="normal" in2="BackgroundImageFix" result="effect1_dropShadow_778_3003"/>
<feColorMatrix in="SourceAlpha" type="matrix" values="0 0 0 0 0 0 0 0 0 0 0 0 0 0 0 0 0 0 127 0" result="hardAlpha"/>
<feOffset/>
<feGaussianBlur stdDeviation="5.34942"/>
<feColorMatrix type="matrix" values="0 0 0 0 0 0 0 0 0 0.8 0 0 0 0 0.858824 0 0 0 0.4 0"/>
<feBlend mode="normal" in2="effect1_dropShadow_778_3003" result="effect2_dropShadow_778_3003"/>
<feBlend mode="normal" in="SourceGraphic" in2="effect2_dropShadow_778_3003" result="shape"/>
</filter>
<filter id="filter7_d_778_3003" x="45.9757" y="60.1" width="41.2666" height="41.2666" filterUnits="userSpaceOnUse" color-interpolation-filters="sRGB">
<feFlood flood-opacity="0" result="BackgroundImageFix"/>
<feColorMatrix in="SourceAlpha" type="matrix" values="0 0 0 0 0 0 0 0 0 0 0 0 0 0 0 0 0 0 127 0" result="hardAlpha"/>
<feOffset/>
<feGaussianBlur stdDeviation="4.45"/>
<feColorMatrix type="matrix" values="0 0 0 0 0.464395 0 0 0 0 0.426138 0 0 0 0 1 0 0 0 1 0"/>
<feBlend mode="normal" in2="BackgroundImageFix" result="effect1_dropShadow_778_3003"/>
<feBlend mode="normal" in="SourceGraphic" in2="effect1_dropShadow_778_3003" result="shape"/>
</filter>
<filter id="filter8_d_778_3003" x="59.9757" y="89.1" width="54.2226" height="54.2324" filterUnits="userSpaceOnUse" color-interpolation-filters="sRGB">
<feFlood flood-opacity="0" result="BackgroundImageFix"/>
<feColorMatrix in="SourceAlpha" type="matrix" values="0 0 0 0 0 0 0 0 0 0 0 0 0 0 0 0 0 0 127 0" result="hardAlpha"/>
<feOffset/>
<feGaussianBlur stdDeviation="4.45"/>
<feColorMatrix type="matrix" values="0 0 0 0 0.464395 0 0 0 0 0.426138 0 0 0 0 1 0 0 0 1 0"/>
<feBlend mode="normal" in2="BackgroundImageFix" result="effect1_dropShadow_778_3003"/>
<feBlend mode="normal" in="SourceGraphic" in2="effect1_dropShadow_778_3003" result="shape"/>
</filter>
<filter id="filter9_dd_778_3003" x="43.2068" y="149.652" width="171.101" height="51.0443" filterUnits="userSpaceOnUse" color-interpolation-filters="sRGB">
<feFlood flood-opacity="0" result="BackgroundImageFix"/>
<feColorMatrix in="SourceAlpha" type="matrix" values="0 0 0 0 0 0 0 0 0 0 0 0 0 0 0 0 0 0 127 0" result="hardAlpha"/>
<feOffset/>
<feGaussianBlur stdDeviation="6.86848"/>
<feColorMatrix type="matrix" values="0 0 0 0 0 0 0 0 0 0.8 0 0 0 0 0.858824 0 0 0 1 0"/>
<feBlend mode="normal" in2="BackgroundImageFix" result="effect1_dropShadow_778_3003"/>
<feColorMatrix in="SourceAlpha" type="matrix" values="0 0 0 0 0 0 0 0 0 0 0 0 0 0 0 0 0 0 127 0" result="hardAlpha"/>
<feOffset/>
<feGaussianBlur stdDeviation="6.86848"/>
<feColorMatrix type="matrix" values="0 0 0 0 0 0 0 0 0 0.8 0 0 0 0 0.858824 0 0 0 0.4 0"/>
<feBlend mode="normal" in2="effect1_dropShadow_778_3003" result="effect2_dropShadow_778_3003"/>
<feBlend mode="normal" in="SourceGraphic" in2="effect2_dropShadow_778_3003" result="shape"/>
</filter>
<filter id="filter10_d_778_3003" x="49.5915" y="191.141" width="157.817" height="10.5038" filterUnits="userSpaceOnUse" color-interpolation-filters="sRGB">
<feFlood flood-opacity="0" result="BackgroundImageFix"/>
<feColorMatrix in="SourceAlpha" type="matrix" values="0 0 0 0 0 0 0 0 0 0 0 0 0 0 0 0 0 0 127 0" result="hardAlpha"/>
<feOffset/>
<feGaussianBlur stdDeviation="1.5"/>
<feColorMatrix type="matrix" values="0 0 0 0 0 0 0 0 0 0.8 0 0 0 0 0.858824 0 0 0 1 0"/>
<feBlend mode="normal" in2="BackgroundImageFix" result="effect1_dropShadow_778_3003"/>
<feBlend mode="normal" in="SourceGraphic" in2="effect1_dropShadow_778_3003" result="shape"/>
</filter>
<filter id="filter11_f_778_3003" x="46" y="195.5" width="9" height="3" filterUnits="userSpaceOnUse" color-interpolation-filters="sRGB">
<feFlood flood-opacity="0" result="BackgroundImageFix"/>
<feBlend mode="normal" in="SourceGraphic" in2="BackgroundImageFix" result="shape"/>
<feGaussianBlur stdDeviation="0.5" result="effect1_foregroundBlur_778_3003"/>
</filter>
<filter id="filter12_f_778_3003" x="201" y="195.5" width="9" height="3" filterUnits="userSpaceOnUse" color-interpolation-filters="sRGB">
<feFlood flood-opacity="0" result="BackgroundImageFix"/>
<feBlend mode="normal" in="SourceGraphic" in2="BackgroundImageFix" result="shape"/>
<feGaussianBlur stdDeviation="0.5" result="effect1_foregroundBlur_778_3003"/>
</filter>
<linearGradient id="paint0_linear_778_3003" x1="35.1034" y1="113.685" x2="122.299" y2="191.901" gradientUnits="userSpaceOnUse">
<stop stop-color="white"/>
<stop offset="0.543269" stop-color="#766DFF"/>
</linearGradient>
<linearGradient id="paint1_linear_778_3003" x1="233.898" y1="113.593" x2="146.816" y2="191.814" gradientUnits="userSpaceOnUse">
<stop stop-color="white"/>
<stop offset="0.543269" stop-color="#00CCDB"/>
</linearGradient>
<linearGradient id="paint2_linear_778_3003" x1="58" y1="178" x2="200" y2="178" gradientUnits="userSpaceOnUse">
<stop stop-color="#D2CFFF"/>
<stop offset="1" stop-color="#A9F9FF"/>
</linearGradient>
<linearGradient id="paint3_linear_778_3003" x1="58" y1="178" x2="200" y2="178" gradientUnits="userSpaceOnUse">
<stop stop-color="#766DFF"/>
<stop offset="1" stop-color="#00CCDB"/>
</linearGradient>
<clipPath id="clip0_778_3003">
<rect width="254" height="196" fill="white" transform="translate(7 38)"/>
</clipPath>
<clipPath id="clip1_778_3003">
<rect width="49.2868" height="48" fill="white" transform="translate(169 71)"/>
</clipPath>
</defs>
</svg>
